<svg width="13" height="12" viewBox="0 0 13 12" fill="none" xmlns="http://www.w3.org/2000/svg">
<path d="M9.56186 7.09982C9.40629 7.25059 9.33481 7.46863 9.37025 7.68246L9.90424 10.6377C9.94929 10.8882 9.84357 11.1417 9.63394 11.2864C9.42851 11.4366 9.15521 11.4546 8.93117 11.3345L6.27083 9.94696C6.17833 9.89771 6.07562 9.87128 5.9705 9.86827H5.80772C5.75126 9.87668 5.696 9.8947 5.64555 9.92233L2.98461 11.3165C2.85307 11.3825 2.7041 11.406 2.55814 11.3825C2.20255 11.3153 1.96529 10.9765 2.02356 10.6191L2.55814 7.66384C2.59358 7.44821 2.5221 7.22896 2.36653 7.0758L0.197543 4.97348C0.0161433 4.79749 -0.0469262 4.53319 0.0359651 4.29473C0.116454 4.05687 0.32188 3.88328 0.569954 3.84424L3.55524 3.41116C3.78229 3.38773 3.98171 3.24958 4.08383 3.04536L5.39927 0.348384C5.43051 0.288318 5.47075 0.233057 5.51941 0.186205L5.57347 0.144159C5.6017 0.112924 5.63413 0.087096 5.67017 0.0660728L5.73565 0.0420463L5.83776 0H6.09064C6.31648 0.0234258 6.5153 0.158575 6.61922 0.360397L7.95209 3.04536C8.04819 3.24177 8.235 3.37812 8.45064 3.41116L11.4359 3.84424C11.6882 3.88028 11.899 4.05447 11.9825 4.29473C12.0612 4.5356 11.9933 4.79989 11.8083 4.97348L9.56186 7.09982Z" fill="#2B406D"/>
</svg>
