<svg width="20" height="22" viewBox="0 0 20 22" fill="none" xmlns="http://www.w3.org/2000/svg">
<path opacity="0.4" d="M13.2992 1.78516H6.24213C3.48279 1.78516 1.62695 3.90966 1.62695 7.06964V14.3626C1.62695 17.5136 3.48279 19.6381 6.24213 19.6381H13.2992C16.0585 19.6381 17.9062 17.5136 17.9062 14.3626V7.06964C17.9062 3.90966 16.0585 1.78516 13.2992 1.78516Z" fill="#2B406D"/>
<path d="M8.80041 13.6106C8.61809 13.6106 8.43576 13.5347 8.29657 13.3821L6.36503 11.2638C6.08666 10.9586 6.08666 10.464 6.36503 10.1596C6.64341 9.85435 7.09353 9.85346 7.37191 10.1587L8.80041 11.7253L12.1605 8.04049C12.4388 7.7352 12.889 7.7352 13.1673 8.04049C13.4457 8.34577 13.4457 8.8403 13.1673 9.14559L9.30426 13.3821C9.16507 13.5347 8.98274 13.6106 8.80041 13.6106Z" fill="#2B406D"/>
</svg>
