<svg width="27" height="27" viewBox="0 0 27 27" fill="none" xmlns="http://www.w3.org/2000/svg">
<path opacity="0.4" d="M18.3705 2.24854L8.62283 2.24854C4.81145 2.24854 2.24805 4.92437 2.24805 8.90439L2.24805 18.0899C2.24805 22.0587 4.81145 24.7345 8.62283 24.7345H18.3705C22.1819 24.7345 24.7341 22.0587 24.7341 18.0899V8.90439C24.7341 4.92437 22.1819 2.24854 18.3705 2.24854Z" fill="#384F80"/>
<path d="M16.8821 15.4822L14.882 13.4832L16.881 11.4842C17.2655 11.1008 17.2655 10.4768 16.881 10.0934C16.4965 9.70664 15.8747 9.70777 15.4902 10.0923L13.4901 12.0913L11.49 10.09C11.1055 9.70552 10.4826 9.70777 10.0981 10.09C9.7147 10.4745 9.7147 11.0985 10.0981 11.4819L12.0993 13.4832L10.1026 15.4788C9.71807 15.8633 9.71807 16.4873 10.1026 16.8696C10.2948 17.0629 10.5456 17.1585 10.7974 17.1585C11.0504 17.1585 11.3011 17.0629 11.4933 16.8707L13.4901 14.8739L15.4914 16.8741C15.6836 17.0663 15.9343 17.1619 16.1862 17.1619C16.438 17.1619 16.6899 17.0652 16.8821 16.8741C17.2666 16.4895 17.2666 15.8667 16.8821 15.4822Z" fill="#384F80"/>
</svg>
