<svg width="19" height="19" viewBox="0 0 19 19" fill="none" xmlns="http://www.w3.org/2000/svg">
<path opacity="0.4" d="M9.50065 1.58317C13.8667 1.58317 17.4173 5.13459 17.4173 9.49984C17.4173 13.8651 13.8667 17.4165 9.50065 17.4165C5.1354 17.4165 1.58398 13.8651 1.58398 9.49984C1.58398 5.13459 5.1354 1.58317 9.50065 1.58317Z" fill="#A6A6A6"/>
<path d="M8.35888 6.15844C8.51009 6.15844 8.66209 6.21623 8.77767 6.33182L11.5382 9.0789C11.6498 9.19052 11.7124 9.34173 11.7124 9.50007C11.7124 9.65761 11.6498 9.80882 11.5382 9.92044L8.77767 12.6691C8.54571 12.9003 8.17046 12.9003 7.93851 12.6675C7.70734 12.4348 7.70813 12.0587 7.94009 11.8276L10.2779 9.50007L7.94009 7.17257C7.70813 6.9414 7.70734 6.56615 7.93851 6.3334C8.05409 6.21623 8.20688 6.15844 8.35888 6.15844Z" fill="#A6A6A6"/>
</svg>
