<svg width="31" height="31" viewBox="0 0 31 31" fill="none" xmlns="http://www.w3.org/2000/svg">
<path opacity="0.4" d="M28.4173 15.5059C28.4173 22.6216 22.6198 28.4163 15.5007 28.4163C8.38152 28.4163 2.58398 22.6216 2.58398 15.5059C2.58398 8.37775 8.38152 2.58301 15.5007 2.58301C22.6198 2.58301 28.4173 8.37775 28.4173 15.5059Z" fill="white"/>
<path d="M20.6667 15.506C20.6667 15.8324 20.5639 16.1601 20.3584 16.4225C20.3199 16.474 20.1401 16.6862 19.9988 16.8243L19.9218 16.8996C18.8429 18.0435 16.1587 19.7636 14.7973 20.3148C14.7973 20.3273 13.9882 20.655 13.6029 20.6663H13.5515C12.9607 20.6663 12.4084 20.3411 12.1259 19.8138C11.9718 19.5238 11.8305 18.6825 11.8176 18.6712C11.7021 17.9166 11.625 16.7615 11.625 15.4934C11.625 14.1637 11.7021 12.9571 11.8433 12.2164C11.8433 12.2038 11.9846 11.5258 12.0745 11.2998C12.2158 10.9746 12.4727 10.6971 12.7937 10.5213C13.0506 10.397 13.3203 10.333 13.6029 10.333C13.8983 10.3468 14.4505 10.5339 14.6689 10.6218C16.1073 11.1742 18.8558 12.9823 19.9089 14.0872C20.0887 14.2629 20.2814 14.4776 20.3327 14.5266C20.5511 14.8028 20.6667 15.1418 20.6667 15.506Z" fill="white"/>
</svg>
