<svg width="16" height="16" viewBox="0 0 16 16" fill="none" xmlns="http://www.w3.org/2000/svg">
<path opacity="0.4" d="M10.6912 1.30859H5.01847C2.80039 1.30859 1.30859 2.86582 1.30859 5.18204V10.5277C1.30859 12.8373 2.80039 14.3946 5.01847 14.3946H10.6912C12.9093 14.3946 14.3946 12.8373 14.3946 10.5277V5.18204C14.3946 2.86582 12.9093 1.30859 10.6912 1.30859Z" fill="#2B406D"/>
<path d="M10.1897 10.3473C10.104 10.3473 10.0176 10.3251 9.93845 10.2786L7.36968 8.74624C7.22181 8.65726 7.13086 8.49695 7.13086 8.32422V5.02197C7.13086 4.75109 7.3507 4.53125 7.62158 4.53125C7.89246 4.53125 8.11231 4.75109 8.11231 5.02197V8.04549L10.4416 9.43456C10.6739 9.57393 10.7504 9.87491 10.6117 10.1078C10.5195 10.2616 10.3566 10.3473 10.1897 10.3473Z" fill="#2B406D"/>
</svg>
