<svg width="31" height="31" viewBox="0 0 31 31" fill="none" xmlns="http://www.w3.org/2000/svg">
<path opacity="0.4" d="M24.2954 11.6523C23.7122 11.6523 22.9397 11.6394 21.9779 11.6394C19.6323 11.6394 17.7036 9.698 17.7036 7.33037V3.17637C17.7036 2.84958 17.4415 2.5835 17.1192 2.5835H10.287C7.09857 2.5835 4.52148 5.20041 4.52148 8.40762V22.3253C4.52148 25.6901 7.22135 28.4168 10.553 28.4168H20.7258C23.904 28.4168 26.4798 25.8167 26.4798 22.6069V12.2335C26.4798 11.9055 26.2189 11.6407 25.8941 11.642C25.3492 11.6458 24.6931 11.6523 24.2954 11.6523Z" fill="white"/>
<path opacity="0.4" d="M20.7753 3.31643C20.3891 2.91472 19.7148 3.19114 19.7148 3.74785V7.15397C19.7148 8.58255 20.8916 9.75797 22.3188 9.75797C23.2204 9.76831 24.4708 9.77089 25.5325 9.7683C26.0763 9.76701 26.3527 9.1173 25.9756 8.72464C24.6128 7.30768 22.1729 4.76826 20.7753 3.31643Z" fill="white"/>
<path d="M18.5579 15.8053H16.3259V13.5746C16.3259 13.0437 15.8958 12.6123 15.3649 12.6123C14.8341 12.6123 14.4026 13.0437 14.4026 13.5746V15.8053H12.1719C11.6411 15.8053 11.2109 16.2367 11.2109 16.7676C11.2109 17.2985 11.6411 17.7299 12.1719 17.7299H14.4026V19.9593C14.4026 20.4902 14.8341 20.9216 15.3649 20.9216C15.8958 20.9216 16.3259 20.4902 16.3259 19.9593V17.7299H18.5579C19.0888 17.7299 19.5202 17.2985 19.5202 16.7676C19.5202 16.2367 19.0888 15.8053 18.5579 15.8053Z" fill="white"/>
</svg>
