<svg width="27" height="27" viewBox="0 0 27 27" fill="none" xmlns="http://www.w3.org/2000/svg">
<path opacity="0.4" d="M18.3705 2.24854L8.62283 2.24854C4.81145 2.24854 2.24805 4.92437 2.24805 8.90439L2.24805 18.0899C2.24805 22.0587 4.81145 24.7345 8.62283 24.7345H18.3705C22.1819 24.7345 24.7341 22.0587 24.7341 18.0899V8.90439C24.7341 4.92437 22.1819 2.24854 18.3705 2.24854Z" fill="#384F80"/>
<path d="M16.8821 15.4819L14.882 13.4829L16.881 11.4839C17.2655 11.1005 17.2655 10.4765 16.881 10.0932C16.4965 9.7064 15.8747 9.70752 15.4902 10.092L13.4901 12.091L11.49 10.0898C11.1055 9.70528 10.4826 9.70752 10.0981 10.0898C9.7147 10.4743 9.7147 11.0983 10.0981 11.4817L12.0993 13.4829L10.1026 15.4786C9.71807 15.8631 9.71807 16.4871 10.1026 16.8693C10.2948 17.0627 10.5456 17.1583 10.7974 17.1583C11.0504 17.1583 11.3011 17.0627 11.4933 16.8704L13.4901 14.8737L15.4914 16.8738C15.6836 17.0661 15.9343 17.1616 16.1862 17.1616C16.438 17.1616 16.6899 17.0649 16.8821 16.8738C17.2666 16.4893 17.2666 15.8664 16.8821 15.4819Z" fill="#384F80"/>
</svg>
