<svg width="40" height="40" viewBox="0 0 40 40" fill="none" xmlns="http://www.w3.org/2000/svg">
<circle cx="19.7168" cy="19.7168" r="19.7168" fill="white"/>
<path d="M24.3646 22.4581L21.6236 19.7187L24.363 16.9793C24.89 16.454 24.89 15.5989 24.363 15.0735C23.8361 14.5435 22.9841 14.545 22.4572 15.0719L19.7162 17.8113L16.9753 15.0688C16.4484 14.5419 15.5948 14.545 15.0679 15.0688C14.5425 15.5958 14.5425 16.4509 15.0679 16.9763L17.8103 19.7187L15.074 22.4535C14.5471 22.9804 14.5471 23.8355 15.074 24.3594C15.3375 24.6244 15.6811 24.7554 16.0262 24.7554C16.3729 24.7554 16.7164 24.6244 16.9799 24.3609L19.7162 21.6246L22.4587 24.3655C22.7222 24.629 23.0657 24.76 23.4109 24.76C23.756 24.76 24.1011 24.6275 24.3646 24.3655C24.8915 23.8386 24.8915 22.9851 24.3646 22.4581Z" fill="#384F80"/>
</svg>
