<svg width="35" height="35" viewBox="0 0 35 35" fill="none" xmlns="http://www.w3.org/2000/svg">
<path fill-rule="evenodd" clip-rule="evenodd" d="M22.0502 6.85312C22.0502 10.0661 24.6587 12.6708 27.8764 12.6708C28.2307 12.669 28.5841 12.635 28.9322 12.5691V24.1028C28.9322 28.955 26.07 31.8257 21.2106 31.8257H10.6269C5.75477 31.8257 2.89258 28.955 2.89258 24.1028V13.5345C2.89258 8.68225 5.75477 5.78613 10.6269 5.78613H22.152C22.0836 6.13767 22.0495 6.49501 22.0502 6.85312ZM19.0226 21.5496L23.1569 16.2147V16.1893C23.5108 15.7137 23.4205 15.0431 22.9534 14.6777C22.7273 14.5032 22.4399 14.4276 22.1571 14.4683C21.8742 14.509 21.6199 14.6625 21.4523 14.8936L17.9668 19.3775L13.9979 16.2528C13.7713 16.0763 13.483 15.9983 13.1982 16.0365C12.9134 16.0748 12.656 16.226 12.4841 16.456L8.2099 21.9688C8.05966 22.1561 7.97878 22.3894 7.98092 22.6293C7.95612 23.1142 8.26234 23.5547 8.72599 23.7011C9.18965 23.8475 9.6938 23.6628 9.95266 23.2517L13.5272 18.6281L17.4961 21.7402C17.7219 21.9221 18.012 22.0047 18.2999 21.9687C18.5878 21.9328 18.8487 21.7815 19.0226 21.5496Z" fill="white" fill-opacity="0.53"/>
<circle opacity="0.4" cx="28.2084" cy="6.50968" r="3.61661" fill="white" fill-opacity="0.53"/>
</svg>
