<svg width="17" height="17" viewBox="0 0 17 17" fill="none" xmlns="http://www.w3.org/2000/svg">
<path opacity="0.4" d="M11.1847 1.36914H5.25019C2.92978 1.36914 1.36914 2.99822 1.36914 5.42131V11.0136C1.36914 13.4298 2.92978 15.0589 5.25019 15.0589H11.1847C13.5051 15.0589 15.0589 13.4298 15.0589 11.0136V5.42131C15.0589 2.99822 13.5051 1.36914 11.1847 1.36914Z" fill="#FF7E81"/>
<path d="M10.2779 9.42564L9.06021 8.20862L10.2772 6.9916C10.5113 6.75819 10.5113 6.3783 10.2772 6.14489C10.0431 5.90942 9.66462 5.91011 9.43052 6.1442L8.21282 7.36122L6.99511 6.14283C6.76102 5.90874 6.38181 5.91011 6.14771 6.14283C5.9143 6.37693 5.9143 6.75682 6.14771 6.99023L7.3661 8.20862L6.15045 9.42359C5.91636 9.65768 5.91636 10.0376 6.15045 10.2703C6.2675 10.388 6.42014 10.4462 6.57347 10.4462C6.72748 10.4462 6.88012 10.388 6.99716 10.271L8.21282 9.05533L9.43121 10.273C9.54826 10.3901 9.7009 10.4483 9.85422 10.4483C10.0075 10.4483 10.1609 10.3894 10.2779 10.273C10.512 10.0389 10.512 9.65974 10.2779 9.42564Z" fill="#FF7E81"/>
</svg>
