<svg width="18" height="16" viewBox="0 0 18 16" fill="none" xmlns="http://www.w3.org/2000/svg">
<path fill-rule="evenodd" clip-rule="evenodd" d="M12.6161 7.63131C11.7364 9.14263 10.2661 10.074 8.76821 10.074C8.72628 10.074 8.68435 10.074 8.64153 10.074C7.1659 10.074 5.69562 9.14263 4.81595 7.63131L4.47872 7.0532L5.63585 6.37962L5.97219 6.95773C6.48072 7.83116 7.4496 8.78131 8.70487 8.73491C9.96906 8.77417 10.9513 7.83205 11.4599 6.95773L11.7962 6.37962L12.9524 7.0532L12.6161 7.63131ZM13.552 0.248705C11.6811 -0.354393 9.97798 0.147892 8.69863 1.66278C7.41838 0.147892 5.71525 -0.354393 3.84439 0.248705C1.48374 1.00972 0.0107902 3.14376 8.42877e-05 5.81666C-0.0222197 10.397 4.38593 13.9853 8.51841 15.8151L8.69952 15.8954L8.88063 15.8151C13.0122 13.9844 17.4195 10.3961 17.3972 5.81577C17.3865 3.14287 15.9135 1.00972 13.552 0.248705Z" fill="#2B406D"/>
</svg>
