<svg width="16" height="16" viewBox="0 0 16 16" fill="none" xmlns="http://www.w3.org/2000/svg">
<path opacity="0.4" d="M10.894 1.33301H5.11398C2.85398 1.33301 1.33398 2.91967 1.33398 5.27967V10.7263C1.33398 13.0797 2.85398 14.6663 5.11398 14.6663H10.894C13.154 14.6663 14.6673 13.0797 14.6673 10.7263V5.27967C14.6673 2.91967 13.154 1.33301 10.894 1.33301Z" fill="#2B406D"/>
<path d="M7.20864 10.165C7.0593 10.165 6.90997 10.1083 6.79597 9.99432L5.21397 8.41232C4.98597 8.18432 4.98597 7.81498 5.21397 7.58765C5.44197 7.35965 5.81064 7.35898 6.03864 7.58698L7.20864 8.75698L9.96064 6.00498C10.1886 5.77698 10.5573 5.77698 10.7853 6.00498C11.0133 6.23298 11.0133 6.60232 10.7853 6.83032L7.6213 9.99432C7.5073 10.1083 7.35797 10.165 7.20864 10.165Z" fill="#2B406D"/>
</svg>
