<svg width="16" height="16" viewBox="0 0 16 16" fill="none" xmlns="http://www.w3.org/2000/svg">
<path d="M10.4238 5.80859C11.9375 5.80877 13.165 7.05494 13.165 8.5918V11.8828C13.165 13.4197 11.9375 14.6658 10.4238 14.666H4.98926C3.47542 14.666 2.24805 13.4198 2.24805 11.8828V8.5918C2.24805 7.05484 3.47542 5.80862 4.98926 5.80859H10.4238ZM7.70312 8.92188C7.38992 8.92188 7.13574 9.18104 7.13574 9.49902V10.9697C7.13593 11.2942 7.39004 11.5527 7.70312 11.5527C8.02274 11.5527 8.27715 11.2942 8.27734 10.9697V9.49902C8.27734 9.18103 8.02286 8.92188 7.70312 8.92188Z" fill="#2B406D"/>
<path opacity="0.4" d="M11.2531 4.93031V5.91079C11.0247 5.84454 10.7833 5.81142 10.5353 5.81142H10.1112V4.93031C10.1112 3.58546 9.0345 2.49236 7.70988 2.49236C6.38526 2.49236 5.3086 3.57884 5.30207 4.91706V5.81142H4.88446C4.62997 5.81142 4.38854 5.84454 4.16016 5.91741V4.93031C4.16668 2.94285 5.75231 1.33301 7.69683 1.33301C9.66745 1.33301 11.2531 2.94285 11.2531 4.93031Z" fill="#2B406D"/>
</svg>
