<svg width="19" height="19" viewBox="0 0 19 19" fill="none" xmlns="http://www.w3.org/2000/svg">
<path opacity="0.4" d="M9.50065 1.58366C13.8667 1.58366 17.4173 5.13508 17.4173 9.50033C17.4173 13.8656 13.8667 17.417 9.50065 17.417C5.1354 17.417 1.58398 13.8656 1.58398 9.50033C1.58398 5.13508 5.1354 1.58366 9.50065 1.58366Z" fill="#A6A6A6"/>
<path d="M8.35888 6.15893C8.51009 6.15893 8.66209 6.21672 8.77767 6.3323L11.5382 9.07939C11.6498 9.19101 11.7124 9.34222 11.7124 9.50055C11.7124 9.6581 11.6498 9.8093 11.5382 9.92093L8.77767 12.6696C8.54571 12.9008 8.17046 12.9008 7.93851 12.668C7.70734 12.4353 7.70813 12.0592 7.94009 11.8281L10.2779 9.50055L7.94009 7.17305C7.70813 6.94189 7.70734 6.56664 7.93851 6.33389C8.05409 6.21672 8.20688 6.15893 8.35888 6.15893Z" fill="#A6A6A6"/>
</svg>
