<svg width="19" height="19" viewBox="0 0 19 19" fill="none" xmlns="http://www.w3.org/2000/svg">
<path opacity="0.4" d="M12.8466 1.57227H6.0301C3.36483 1.57227 1.57227 3.44346 1.57227 6.22665V12.65C1.57227 15.4254 3.36483 17.2966 6.0301 17.2966H12.8466C15.5118 17.2966 17.2966 15.4254 17.2966 12.65V6.22665C17.2966 3.44346 15.5118 1.57227 12.8466 1.57227Z" fill="#FF7E81"/>
<path d="M11.8045 10.8263L10.4058 9.42836L11.8037 8.03047C12.0726 7.76237 12.0726 7.32602 11.8037 7.05793C11.5348 6.78747 11.1 6.78825 10.8311 7.05714L9.43246 8.45503L8.03378 7.05557C7.7649 6.78668 7.32933 6.78825 7.06045 7.05557C6.79235 7.32445 6.79235 7.7608 7.06045 8.0289L8.45991 9.42836L7.06359 10.8239C6.79471 11.0928 6.79471 11.5291 7.06359 11.7964C7.19804 11.9317 7.37336 11.9985 7.54947 11.9985C7.72637 11.9985 7.9017 11.9317 8.03614 11.7972L9.43246 10.4009L10.8319 11.7996C10.9664 11.934 11.1417 12.0009 11.3178 12.0009C11.4939 12.0009 11.67 11.9332 11.8045 11.7996C12.0734 11.5307 12.0734 11.0951 11.8045 10.8263Z" fill="#FF7E81"/>
</svg>
