<svg width="38" height="38" viewBox="0 0 38 38" fill="none" xmlns="http://www.w3.org/2000/svg">
<path opacity="0.4" d="M19.0013 3.16634C27.7334 3.16634 34.8346 10.2692 34.8346 18.9997C34.8346 27.7302 27.7334 34.833 19.0013 34.833C10.2708 34.833 3.16797 27.7302 3.16797 18.9997C3.16797 10.2692 10.2708 3.16634 19.0013 3.16634Z" fill="#A6A6A6"/>
<path d="M16.7178 12.3169C17.0202 12.3169 17.3242 12.4325 17.5553 12.6636L23.0764 18.1578C23.2997 18.381 23.4248 18.6835 23.4248 19.0001C23.4248 19.3152 23.2997 19.6176 23.0764 19.8409L17.5553 25.3382C17.0914 25.8005 16.3409 25.8005 15.877 25.335C15.4147 24.8695 15.4163 24.1175 15.8802 23.6551L20.5558 19.0001L15.8802 14.3451C15.4163 13.8828 15.4147 13.1323 15.877 12.6668C16.1082 12.4325 16.4138 12.3169 16.7178 12.3169Z" fill="#A6A6A6"/>
</svg>
