<svg width="62" height="62" viewBox="0 0 62 62" fill="none" xmlns="http://www.w3.org/2000/svg">
<path opacity="0.4" d="M48.5907 23.3046C47.4243 23.3046 45.8794 23.2787 43.9558 23.2787C39.2646 23.2787 35.4073 19.396 35.4073 14.6607V6.35274C35.4073 5.69916 34.8829 5.16699 34.2383 5.16699H20.574C14.1971 5.16699 9.04297 10.4008 9.04297 16.8152V44.6507C9.04297 51.3802 14.4427 56.8337 21.106 56.8337H41.4516C47.808 56.8337 52.9596 51.6334 52.9596 45.2138V24.4671C52.9596 23.8109 52.4378 23.2813 51.7881 23.2839C50.6984 23.2917 49.3862 23.3046 48.5907 23.3046Z" fill="white"/>
<path opacity="0.4" d="M41.5506 6.63286C40.7782 5.82944 39.4297 6.38228 39.4297 7.49569V14.3079C39.4297 17.1651 41.7831 19.5159 44.6377 19.5159C46.4409 19.5366 48.9415 19.5418 51.065 19.5366C52.1526 19.534 52.7054 18.2346 51.9511 17.4493C49.2257 14.6154 44.3458 9.53653 41.5506 6.63286Z" fill="white"/>
<path d="M37.1159 31.6106H32.6519V27.1492C32.6519 26.0874 31.7916 25.2246 30.7299 25.2246C29.6681 25.2246 28.8053 26.0874 28.8053 27.1492V31.6106H24.3439C23.2821 31.6106 22.4219 32.4734 22.4219 33.5352C22.4219 34.5969 23.2821 35.4598 24.3439 35.4598H28.8053V39.9186C28.8053 40.9804 29.6681 41.8432 30.7299 41.8432C31.7916 41.8432 32.6519 40.9804 32.6519 39.9186V35.4598H37.1159C38.1776 35.4598 39.0405 34.5969 39.0405 33.5352C39.0405 32.4734 38.1776 31.6106 37.1159 31.6106Z" fill="white"/>
</svg>
