<svg width="54" height="54" viewBox="0 0 54 54" fill="none" xmlns="http://www.w3.org/2000/svg">
<path opacity="0.4" d="M36.7636 4.49984L17.2563 4.49984C9.62882 4.49984 4.49886 9.8548 4.49886 17.8197L4.49886 36.2021C4.49886 44.1446 9.62882 49.4995 17.2563 49.4995H36.7636C44.3911 49.4995 49.4986 44.1446 49.4986 36.2021V17.8197C49.4986 9.8548 44.3911 4.49984 36.7636 4.49984Z" fill="#384F80"/>
<path d="M33.785 30.9829L29.7823 26.9824L33.7828 22.982C34.5523 22.2147 34.5523 20.966 33.7828 20.1987C33.0133 19.4247 31.769 19.427 30.9995 20.1965L26.9968 24.197L22.9941 20.192C22.2246 19.4225 20.9781 19.427 20.2086 20.192C19.4414 20.9615 19.4414 22.2102 20.2086 22.9775L24.2136 26.9824L20.2176 30.9762C19.4481 31.7457 19.4481 32.9944 20.2176 33.7594C20.6023 34.1464 21.1041 34.3376 21.6081 34.3376C22.1143 34.3376 22.6161 34.1464 23.0008 33.7616L26.9968 29.7657L31.0018 33.7684C31.3865 34.1531 31.8883 34.3444 32.3923 34.3444C32.8963 34.3444 33.4003 34.1509 33.785 33.7684C34.5545 32.9989 34.5545 31.7524 33.785 30.9829Z" fill="#384F80"/>
</svg>
