<svg width="62" height="62" viewBox="0 0 62 62" fill="none" xmlns="http://www.w3.org/2000/svg">
<path opacity="0.4" d="M56.8346 31.0118C56.8346 45.2432 45.2396 56.8327 31.0013 56.8327C16.763 56.8327 5.16797 45.2432 5.16797 31.0118C5.16797 16.7555 16.763 5.16602 31.0013 5.16602C45.2396 5.16602 56.8346 16.7555 56.8346 31.0118Z" fill="white"/>
<path d="M41.3333 31.0119C41.3333 31.6648 41.1278 32.3202 40.7169 32.845C40.6398 32.948 40.2802 33.3724 39.9976 33.6486L39.8435 33.7993C37.6858 36.0869 32.3174 39.5272 29.5946 40.6296C29.5946 40.6547 27.9763 41.3101 27.2057 41.3327H27.103C25.9214 41.3327 24.8169 40.6823 24.2518 39.6276C23.9435 39.0475 23.661 37.3651 23.6353 37.3425C23.4041 35.8333 23.25 33.523 23.25 30.9868C23.25 28.3275 23.4041 25.9143 23.6867 24.4327C23.6867 24.4076 23.9692 23.0516 24.149 22.5996C24.4316 21.9492 24.9453 21.3942 25.5875 21.0427C26.1012 20.7941 26.6406 20.666 27.2057 20.666C27.7965 20.6936 28.901 21.0678 29.3377 21.2436C32.2146 22.3485 37.7115 25.9645 39.8178 28.1743C40.1774 28.5259 40.5627 28.9553 40.6655 29.0532C41.1022 29.6057 41.3333 30.2837 41.3333 31.0119Z" fill="white"/>
</svg>
