<svg preserveAspectRatio="none" width="100%" height="100%" overflow="visible" style="display: block;" viewBox="0 0 18.3882 18.3882" fill="none" xmlns="http://www.w3.org/2000/svg">
<g id="Arrow - Right Circle">
<path id="Fill 1" opacity="0.4" d="M18.3882 9.19411C18.3882 14.2647 14.2637 18.3882 9.19411 18.3882C4.12448 18.3882 0 14.2647 0 9.19411C0 4.12448 4.12448 0 9.19411 0C14.2637 0 18.3882 4.12448 18.3882 9.19411" fill="var(--fill-0, white)"/>
<path id="Fill 4" d="M13.0747 7.86795C13.0747 8.04356 13.0076 8.22009 12.8733 8.35432L9.68296 11.5603C9.55332 11.6899 9.37772 11.7626 9.19383 11.7626C9.01087 11.7626 8.83526 11.6899 8.70563 11.5603L5.51343 8.35432C5.24496 8.08493 5.24496 7.64913 5.51527 7.37975C5.78558 7.11128 6.2223 7.1122 6.49077 7.38158L9.19383 10.0966L11.8969 7.38158C12.1654 7.1122 12.6012 7.11128 12.8715 7.37975C13.0076 7.51398 13.0747 7.69143 13.0747 7.86795" fill="var(--fill-0, white)"/>
</g>
</svg>
