<svg width="48" height="48" viewBox="0 0 48 48" fill="none" xmlns="http://www.w3.org/2000/svg">
<path opacity="0.4" d="M39.9854 37.9062H28.5969C27.4858 37.9062 26.582 38.8243 26.582 39.953C26.582 41.0839 27.4858 41.9997 28.5969 41.9997H39.9854C41.0966 41.9997 42.0003 41.0839 42.0003 39.953C42.0003 38.8243 41.0966 37.9062 39.9854 37.9062Z" fill="white"/>
<path d="M20.618 13.8082L31.4098 22.5284C31.6701 22.7369 31.7145 23.1196 31.5114 23.3862L18.7175 40.0569C17.9132 41.0867 16.728 41.6693 15.4582 41.6908L8.47392 41.7768C8.10143 41.7811 7.7755 41.5231 7.69084 41.1534L6.10351 34.252C5.82837 32.9836 6.10351 31.6721 6.90776 30.6616L19.7651 13.9114C19.9725 13.6426 20.3556 13.5953 20.618 13.8082Z" fill="white"/>
<path opacity="0.4" d="M36.2425 17.3309L34.1621 19.928C33.9526 20.1925 33.5758 20.2355 33.3155 20.0248C30.7864 17.978 24.3101 12.7257 22.5132 11.2702C22.2508 11.0552 22.2148 10.6725 22.4264 10.4059L24.4328 7.91411C26.253 5.57067 29.4276 5.35568 31.9885 7.39813L34.9303 9.74157C36.1367 10.6875 36.941 11.9345 37.2161 13.246C37.5336 14.6886 37.1949 16.1054 36.2425 17.3309Z" fill="white"/>
</svg>
