<svg preserveAspectRatio="none" width="100%" height="100%" overflow="visible" style="display: block;" viewBox="0 0 834.24 834.24" fill="none" xmlns="http://www.w3.org/2000/svg">
<g id="Group 2085664863">
<path id="Ellipse 20" d="M417.12 834.24C186.751 834.24 8.16314e-06 647.489 1.82329e-05 417.12C2.83026e-05 186.751 186.751 8.16315e-06 417.12 1.82329e-05C647.489 2.83027e-05 834.24 186.751 834.24 417.12C834.24 647.489 647.489 834.24 417.12 834.24ZM417.12 59.3138C219.509 59.3138 59.3138 219.509 59.3138 417.12C59.3138 614.731 219.509 774.926 417.12 774.927C614.731 774.927 774.926 614.731 774.927 417.12C774.927 219.509 614.731 59.3138 417.12 59.3138Z" fill="url(#paint0_linear_0_36)"/>
</g>
<defs>
<linearGradient id="paint0_linear_0_36" x1="834.24" y1="417.12" x2="1.82329e-05" y2="417.12" gradientUnits="userSpaceOnUse">
<stop stop-color="#3B507D"/>
<stop offset="1" stop-color="#112250"/>
</linearGradient>
</defs>
</svg>
