<svg preserveAspectRatio="none" width="100%" height="100%" overflow="visible" style="display: block;" viewBox="0 0 12.4672 12.4672" fill="none" xmlns="http://www.w3.org/2000/svg">
<path id="Vector" d="M9.79344 6.76698V7.38216C9.79344 9.08621 9.34959 10.7318 8.51336 12.2089L8.36163 12.4672L7.19385 11.8681C7.96925 10.5885 8.40374 9.15511 8.45187 7.66269L8.45655 7.38216V6.76698H9.79344ZM5.78275 4.92144H7.11965V7.38216L7.11631 7.61532C7.06577 9.29949 6.43596 10.9255 5.31751 12.2593L5.1631 12.4377L4.127 11.6601C5.14707 10.5133 5.72744 9.08868 5.77807 7.60732L5.78275 7.38216V4.92144ZM6.4512 2.46073C7.33762 2.46073 8.18773 2.78479 8.81452 3.36164C9.44132 3.93848 9.79344 4.72084 9.79344 5.53662H8.45655C8.45655 5.04716 8.24527 4.57774 7.86919 4.23163C7.49312 3.88552 6.98305 3.69108 6.4512 3.69108C5.91935 3.69108 5.40928 3.88552 5.03321 4.23163C4.65713 4.57774 4.44585 5.04716 4.44585 5.53662V7.38216C4.44585 8.75709 3.89773 10.0545 2.92781 11.0591L2.78609 11.2006L1.81818 10.3516C2.60024 9.59862 3.05765 8.60931 3.10494 7.56856L3.10896 7.38216V5.53662C3.10896 4.72084 3.46108 3.93848 4.08788 3.36164C4.71467 2.78479 5.56478 2.46073 6.4512 2.46073ZM6.4512 6.06846e-06C8.04675 6.06846e-06 9.57696 0.583327 10.7052 1.62164C11.8334 2.65996 12.4672 4.06822 12.4672 5.53662V7.38216C12.4672 8.42674 12.3322 9.45532 12.0682 10.4519L11.9746 10.7835L10.6845 10.4599C10.9472 9.57589 11.0949 8.66235 11.125 7.73159L11.1303 7.38216V5.53662C11.1303 4.73742 10.8887 3.95399 10.4324 3.274C9.97611 2.594 9.32321 2.04429 8.54676 1.68636C7.77032 1.32844 6.90096 1.17643 6.03598 1.24735C5.171 1.31827 4.34453 1.60932 3.64906 2.08793L2.69652 1.21068C3.76168 0.425268 5.08633 -0.0018569 6.4512 6.06846e-06ZM1.75067 2.08116L2.70388 2.95779C2.13057 3.66108 1.80619 4.50964 1.77473 5.38837L1.77206 5.53662L1.77473 6.76698C1.77473 7.45598 1.59826 8.12222 1.26537 8.72141L1.1611 8.89981L0 8.28955C0.255357 7.87886 0.403206 7.41906 0.431818 6.94662L0.437834 6.76698V5.53662C0.433869 4.28063 0.897156 3.06123 1.75067 2.08116Z" fill="var(--fill-0, white)"/>
</svg>
