<svg width="41" height="41" viewBox="0 0 41 41" fill="none" xmlns="http://www.w3.org/2000/svg">
<path d="M17.3442 9.49177C17.4312 9.66886 17.4887 9.85851 17.5144 10.0535L17.9901 17.1256L18.2262 20.6803C18.2286 21.0458 18.286 21.409 18.3964 21.7581C18.6815 22.4355 19.3675 22.866 20.1139 22.836L31.4864 22.0921C31.9789 22.084 32.4544 22.2682 32.8085 22.6041C33.1035 22.8841 33.2939 23.2504 33.354 23.6443L33.3741 23.8835C32.9035 30.4001 28.1174 35.8355 21.6143 37.2385C15.1112 38.6416 8.44254 35.6777 5.22899 29.956C4.30255 28.2937 3.72389 26.4665 3.52698 24.5818C3.44472 24.0239 3.4085 23.4604 3.41867 22.8967C3.40851 15.9101 8.38378 9.87003 15.3482 8.41391C16.1864 8.28339 17.0082 8.72713 17.3442 9.49177Z" fill="white"/>
<path opacity="0.4" d="M21.9878 3.41839C29.7774 3.61657 36.3242 9.21797 37.5844 16.7626L37.5724 16.8183L37.538 16.8992L37.5428 17.1215C37.5249 17.4159 37.4113 17.6992 37.2154 17.928C37.0113 18.1664 36.7325 18.3287 36.4255 18.3917L36.2383 18.4174L23.1173 19.2675C22.6809 19.3106 22.2463 19.1698 21.9217 18.8803C21.6513 18.6391 21.4783 18.3134 21.4295 17.9625L20.5488 4.8606C20.5335 4.8163 20.5335 4.76827 20.5488 4.72397C20.5608 4.36282 20.7198 4.02145 20.9902 3.77613C21.2606 3.5308 21.6199 3.40196 21.9878 3.41839Z" fill="white"/>
</svg>
