<svg width="38" height="38" viewBox="0 0 38 38" fill="none" xmlns="http://www.w3.org/2000/svg">
<path opacity="0.4" d="M25.8713 3.16634H12.1438C6.77634 3.16634 3.16634 6.93467 3.16634 12.5397V25.4755C3.16634 31.0647 6.77634 34.833 12.1438 34.833H25.8713C31.2388 34.833 34.833 31.0647 34.833 25.4755V12.5397C34.833 6.93467 31.2388 3.16634 25.8713 3.16634Z" fill="#FF7E81"/>
<path d="M23.7727 21.8027L20.9559 18.9875L23.7711 16.1723C24.3126 15.6324 24.3126 14.7537 23.7711 14.2137C23.2296 13.6691 22.354 13.6707 21.8125 14.2122L18.9957 17.0273L16.179 14.209C15.6375 13.6675 14.7603 13.6707 14.2188 14.209C13.6789 14.7505 13.6789 15.6292 14.2188 16.1692L17.0372 18.9875L14.2252 21.7979C13.6837 22.3394 13.6837 23.2182 14.2252 23.7565C14.4959 24.0288 14.849 24.1634 15.2037 24.1634C15.5599 24.1634 15.913 24.0288 16.1837 23.7581L18.9957 20.9461L21.8141 23.7628C22.0848 24.0336 22.4379 24.1682 22.7926 24.1682C23.1472 24.1682 23.5019 24.032 23.7727 23.7628C24.3142 23.2213 24.3142 22.3442 23.7727 21.8027Z" fill="#FF7E81"/>
</svg>
