<svg width="32" height="32" viewBox="0 0 32 32" fill="none" xmlns="http://www.w3.org/2000/svg">
<path opacity="0.4" d="M21.7867 2.66667H10.2267C5.70667 2.66667 2.66667 5.84001 2.66667 10.56V21.4534C2.66667 26.1601 5.70667 29.3334 10.2267 29.3334H21.7867C26.3067 29.3334 29.3334 26.1601 29.3334 21.4534V10.56C29.3334 5.84001 26.3067 2.66667 21.7867 2.66667Z" fill="#2B406D"/>
<path d="M20.7647 21.0859C20.59 21.0859 20.414 21.0405 20.2527 20.9459L15.018 17.8232C14.7167 17.6419 14.5313 17.3152 14.5313 16.9632V10.2338C14.5313 9.68183 14.9793 9.23383 15.5313 9.23383C16.0833 9.23383 16.5313 9.68183 16.5313 10.2338V16.3952L21.278 19.2259C21.7514 19.5099 21.9074 20.1232 21.6247 20.5979C21.4367 20.9112 21.1047 21.0859 20.7647 21.0859Z" fill="#2B406D"/>
</svg>
