<svg width="40" height="43" viewBox="0 0 40 43" fill="none" xmlns="http://www.w3.org/2000/svg">
<path opacity="0.4" d="M26.693 3.58301H12.5287C6.99035 3.58301 3.26548 7.84713 3.26548 14.1896V28.8273C3.26548 35.1518 6.99035 39.4159 12.5287 39.4159H26.693C32.2313 39.4159 35.9398 35.1518 35.9398 28.8273V14.1896C35.9398 7.84713 32.2313 3.58301 26.693 3.58301Z" fill="#2B406D"/>
<path d="M17.6634 27.318C17.2975 27.318 16.9315 27.1657 16.6521 26.8594L12.7753 22.6078C12.2166 21.995 12.2166 21.0025 12.7753 20.3915C13.3341 19.7788 14.2375 19.777 14.7962 20.3897L17.6634 23.5341L24.4074 16.1382C24.9661 15.5254 25.8696 15.5254 26.4283 16.1382C26.987 16.7509 26.987 17.7435 26.4283 18.3562L18.6747 26.8594C18.3953 27.1657 18.0294 27.318 17.6634 27.318Z" fill="#2B406D"/>
</svg>
