<svg width="25" height="23" viewBox="0 0 25 23" fill="none" xmlns="http://www.w3.org/2000/svg">
<path d="M19.2694 14.3078C18.9558 14.6116 18.8118 15.051 18.8832 15.4819L19.9593 21.4375C20.0501 21.9422 19.8371 22.453 19.4146 22.7448C19.0006 23.0474 18.4499 23.0837 17.9984 22.8416L12.6372 20.0454C12.4508 19.9462 12.2438 19.8929 12.0319 19.8868H11.7039C11.5901 19.9038 11.4788 19.9401 11.3771 19.9958L6.01469 22.8053C5.74959 22.9384 5.44939 22.9857 5.15525 22.9384C4.43865 22.8029 3.96051 22.1202 4.07793 21.3999L5.15525 15.4444C5.22667 15.0099 5.08262 14.568 4.76911 14.2594L0.398095 10.0227C0.0325324 9.66804 -0.0945672 9.13543 0.072478 8.65488C0.234681 8.17553 0.648663 7.8257 1.14859 7.74702L7.16463 6.87427C7.62219 6.82706 8.02407 6.54865 8.22985 6.13709L10.8808 0.702074C10.9437 0.581027 11.0248 0.469663 11.1229 0.375246L11.2318 0.290513C11.2887 0.227569 11.3541 0.175518 11.4267 0.133152L11.5586 0.084733L11.7644 0H12.274C12.7292 0.0472084 13.1298 0.319565 13.3393 0.726283L16.0253 6.13709C16.219 6.53292 16.5954 6.80769 17.03 6.87427L23.046 7.74702C23.5544 7.81965 23.9793 8.17069 24.1476 8.65488C24.3061 9.14027 24.1693 9.67288 23.7965 10.0227L19.2694 14.3078Z" fill="#2B406D"/>
</svg>
