<svg width="41" height="41" viewBox="0 0 41 41" fill="none" xmlns="http://www.w3.org/2000/svg">
<path opacity="0.4" d="M3.41699 18.925C3.50241 22.919 3.74157 29.7504 3.77573 30.5038C3.89702 32.1147 4.51371 33.7427 5.47377 34.8907C6.80965 36.5016 8.45473 37.2208 10.749 37.2208C13.9195 37.2379 17.4147 37.2379 20.809 37.2379C24.2171 37.2379 27.5243 37.2379 30.3174 37.2208C32.5791 37.2208 34.2755 36.4828 35.5943 34.8907C36.5543 33.7427 37.171 32.0976 37.2581 30.5038C37.2923 29.87 37.4631 22.4544 37.5656 18.925H3.41699Z" fill="white"/>
<path d="M19.2098 26.2803V28.4908C19.2098 29.198 19.7838 29.772 20.491 29.772C21.1982 29.772 21.7722 29.198 21.7722 28.4908V26.2803C21.7722 25.573 21.1982 24.999 20.491 24.999C19.7838 24.999 19.2098 25.573 19.2098 26.2803Z" fill="white"/>
<path d="M22.6975 3.41699C25.2612 3.41738 27.3643 5.34566 27.6855 7.8257H31.0613C34.647 7.8257 37.5653 10.7443 37.5653 14.3317V20.2526C37.5652 20.6827 37.3485 21.0834 36.9919 21.3209C33.4696 23.6526 29.2875 25.2056 24.9009 25.8121C24.8411 25.8206 24.7822 25.8238 24.7241 25.8238C24.1452 25.8237 23.6283 25.4333 23.483 24.8596C23.1379 23.4998 21.9019 22.5482 20.4823 22.5482C19.0444 22.5484 17.8238 23.479 17.4443 24.8655C17.2735 25.4856 16.6761 25.8818 16.0304 25.7963C11.6728 25.1881 7.50786 23.6423 3.99238 21.3209C3.63236 21.0851 3.41713 20.6827 3.41699 20.2526V14.3317C3.41699 10.7446 6.34118 7.8261 9.93678 7.8257H13.2968C13.6181 5.34539 15.7211 3.41699 18.2868 3.41699H22.6975ZM18.2868 5.97974C17.1372 5.97974 16.1761 6.76501 15.889 7.8257H25.0913C24.8043 6.76532 23.8449 5.98009 22.6975 5.97974H18.2868Z" fill="white"/>
</svg>
