<svg width="43" height="43" viewBox="0 0 43 43" fill="none" xmlns="http://www.w3.org/2000/svg">
<path opacity="0.4" d="M21.6513 39.4149C21.4295 39.4149 21.2076 39.3639 21.0074 39.2603L14.5557 35.9205C12.7249 34.9718 11.2928 33.9072 10.1745 32.6669C7.72695 29.9543 6.36517 26.4723 6.34353 22.8602L6.26777 10.9717C6.25875 9.59966 7.14436 8.36812 8.46826 7.90431L20.3148 3.774C21.0183 3.52277 21.8029 3.51926 22.5189 3.7617L34.4106 7.75147C35.7417 8.19595 36.6417 9.4187 36.6489 10.789L36.7247 22.6863C36.7481 26.2931 35.4333 29.7892 33.0235 32.5316C31.9179 33.7895 30.4984 34.8699 28.6857 35.8362L22.2917 39.2515C22.0933 39.3587 21.8732 39.4131 21.6513 39.4149Z" fill="white"/>
<path d="M20.2803 25.6584C19.934 25.6601 19.5876 25.5354 19.3207 25.2789L15.8865 21.9761C15.3562 21.4631 15.3508 20.6303 15.8757 20.1138C16.4005 19.5955 17.2573 19.5903 17.7894 20.1015L20.2604 22.4768L26.2937 16.5281C26.8204 16.0098 27.6771 16.0046 28.2074 16.5158C28.7395 17.0288 28.7449 17.8633 28.2201 18.3781L21.2344 25.2666C20.9711 25.5266 20.6266 25.6566 20.2803 25.6584Z" fill="white"/>
</svg>
