<svg width="42" height="42" viewBox="0 0 42 42" fill="none" xmlns="http://www.w3.org/2000/svg">
<path fill-rule="evenodd" clip-rule="evenodd" d="M38.4944 14.6566H31.0836C27.6349 14.6627 24.841 17.3867 24.8348 20.7493C24.8301 24.1194 27.6271 26.8555 31.0836 26.8601H38.5006V27.3955C38.5006 33.2742 34.9368 36.7505 28.9058 36.7505H13.0964C7.06384 36.7505 3.5 33.2742 3.5 27.3955V14.5914C3.5 8.71265 7.06384 5.25 13.0964 5.25H28.8995C34.9305 5.25 38.4944 8.71265 38.4944 14.5914V14.6566ZM11.7944 14.643H21.6645H21.6708H21.6832C22.4221 14.6399 23.0194 14.053 23.0163 13.331C23.0132 12.6106 22.4097 12.0282 21.6708 12.0312H11.7944C11.0601 12.0342 10.4643 12.6151 10.4612 13.3325C10.4581 14.053 11.0555 14.6399 11.7944 14.643Z" fill="white"/>
<path opacity="0.4" d="M28.0655 21.5188C28.4314 23.1834 29.8909 24.3546 31.5571 24.3241H37.2446C37.9378 24.3241 38.5002 23.75 38.5002 23.0403V18.61C38.4987 17.9018 37.9378 17.3261 37.2446 17.3246H31.4232C29.5279 17.3307 27.997 18.9039 28 20.8427C28 21.0696 28.0223 21.2965 28.0655 21.5188Z" fill="white"/>
<circle cx="31.5" cy="20.8246" r="1.75003" fill="white"/>
</svg>
