<svg width="54" height="54" viewBox="0 0 54 54" fill="none" xmlns="http://www.w3.org/2000/svg">
<path opacity="0.4" d="M36.764 4.49988L17.2564 4.49988C9.62891 4.49988 4.4989 9.85489 4.4989 17.8199L4.4989 36.2024C4.4989 44.145 9.62891 49.5 17.2564 49.5H36.764C44.3915 49.5 49.499 44.145 49.499 36.2024V17.8199C49.499 9.85489 44.3915 4.49988 36.764 4.49988Z" fill="#384F80"/>
<path d="M33.7853 30.9837L29.7826 26.9832L33.7831 22.9827C34.5526 22.2154 34.5526 20.9667 33.7831 20.1994C33.0136 19.4254 31.7693 19.4277 30.9998 20.1972L26.997 24.1977L22.9943 20.1927C22.2248 19.4232 20.9783 19.4277 20.2088 20.1927C19.4415 20.9622 19.4415 22.2109 20.2088 22.9782L24.2138 26.9832L20.2178 30.9769C19.4483 31.7464 19.4483 32.9952 20.2178 33.7602C20.6025 34.1472 21.1043 34.3384 21.6083 34.3384C22.1145 34.3384 22.6163 34.1472 23.001 33.7624L26.997 29.7664L31.0021 33.7692C31.3868 34.1539 31.8886 34.3452 32.3926 34.3452C32.8966 34.3452 33.4006 34.1517 33.7853 33.7692C34.5548 32.9997 34.5548 31.7532 33.7853 30.9837Z" fill="#384F80"/>
</svg>
