<svg preserveAspectRatio="none" width="100%" height="100%" overflow="visible" style="display: block;" viewBox="0 0 17.4163 18.333" fill="none" xmlns="http://www.w3.org/2000/svg">
<g id="Setting">
<path id="Setting_2" d="M9.3661 0C10.0591 0.000155753 10.6865 0.38501 11.0331 0.953125C11.2017 1.22808 11.3141 1.56737 11.286 1.9248C11.2673 2.19979 11.352 2.47479 11.5018 2.73145C11.9796 3.51058 13.0378 3.80417 13.8622 3.36426C14.7896 2.83261 15.961 3.1531 16.495 4.06055L17.122 5.14258C17.6652 6.04992 17.366 7.21369 16.4296 7.73633C15.6333 8.20383 15.3522 9.23999 15.83 10.0283C15.9798 10.2757 16.1479 10.4869 16.41 10.6152C16.7378 10.7893 16.9909 11.064 17.1688 11.3389C17.5155 11.9072 17.4875 12.6046 17.1503 13.2188L16.495 14.3184C16.1484 14.905 15.5018 15.2714 14.8368 15.2715C14.509 15.2715 14.1434 15.1803 13.8436 14.9971C13.6001 14.8413 13.3191 14.7862 13.0194 14.7861C12.092 14.7861 11.3142 15.5466 11.286 16.4541C11.286 17.5083 10.4239 18.333 9.34657 18.333H8.07313C6.98645 18.333 6.12392 17.5083 6.12392 16.4541C6.10514 15.5466 5.32768 14.7861 4.40028 14.7861C4.09129 14.7862 3.81016 14.8413 3.57606 14.9971C3.27635 15.1803 2.90129 15.2715 2.5829 15.2715C1.90858 15.2713 1.26246 14.9049 0.915908 14.3184L0.269424 13.2188C-0.07719 12.6229 -0.0957447 11.9072 0.250869 11.3389C0.400757 11.064 0.681613 10.7893 0.999893 10.6152C1.2622 10.4869 1.43146 10.2758 1.59071 10.0283C2.05895 9.24001 1.77755 8.20379 0.981338 7.73633C0.0540916 7.21381 -0.245855 6.05 0.287979 5.14258L0.915908 4.06055C1.45931 3.15324 2.6208 2.83264 3.55751 3.36426C4.37252 3.80426 5.43131 3.51061 5.90907 2.73145C6.05887 2.47485 6.14265 2.19972 6.12392 1.9248C6.10523 1.56739 6.20866 1.22807 6.38661 0.953125C6.73324 0.384862 7.361 0.018332 8.04481 0H9.3661ZM8.71962 6.58203C7.24887 6.58203 6.05851 7.73664 6.05849 9.17578C6.05849 10.6149 7.24885 11.7607 8.71962 11.7607C10.1902 11.7606 11.3515 10.6148 11.3515 9.17578C11.3514 7.73674 10.1902 6.5822 8.71962 6.58203Z" fill="url(#paint0_linear_0_24)"/>
</g>
<defs>
<linearGradient id="paint0_linear_0_24" x1="-1.88809" y1="4.83364" x2="16.4798" y2="15.5687" gradientUnits="userSpaceOnUse">
<stop stop-color="#172545"/>
<stop offset="0.411458" stop-color="#2E416B"/>
<stop offset="1" stop-color="#172646"/>
</linearGradient>
</defs>
</svg>
