<svg preserveAspectRatio="none" width="100%" height="100%" overflow="visible" style="display: block;" viewBox="0 0 22.486 22.486" fill="none" xmlns="http://www.w3.org/2000/svg">
<g id="Group">
<path id="Fill 1" opacity="0.4" d="M16.1225 0H6.37478C2.56341 0 0 2.67584 0 6.65586V15.8414C0 19.8102 2.56341 22.486 6.37478 22.486H16.1225C19.9338 22.486 22.486 19.8102 22.486 15.8414V6.65586C22.486 2.67584 19.9338 0 16.1225 0" fill="var(--fill-0, #FF7E81)"/>
<path id="Fill 4" d="M14.6336 13.2336L12.6334 11.2346L14.6324 9.23557C15.0169 8.85218 15.0169 8.22819 14.6324 7.84481C14.2479 7.45805 13.6262 7.45917 13.2417 7.84368L11.2415 9.84269L9.24141 7.84143C8.8569 7.45692 8.23404 7.45917 7.84953 7.84143C7.46614 8.22595 7.46614 8.84993 7.84953 9.23332L9.85078 11.2346L7.85403 13.2302C7.46952 13.6147 7.46952 14.2387 7.85403 14.621C8.04628 14.8143 8.297 14.9099 8.54884 14.9099C8.80181 14.9099 9.05253 14.8143 9.24479 14.6221L11.2415 12.6253L13.2428 14.6255C13.4351 14.8177 13.6858 14.9133 13.9376 14.9133C14.1895 14.9133 14.4413 14.8166 14.6336 14.6255C15.0181 14.241 15.0181 13.6181 14.6336 13.2336" fill="var(--fill-0, #FF7E81)"/>
</g>
</svg>
