<svg width="70" height="70" viewBox="0 0 70 70" fill="none" xmlns="http://www.w3.org/2000/svg">
<path fill-rule="evenodd" clip-rule="evenodd" d="M44.457 13.8171C44.457 20.295 49.7161 25.5464 56.2036 25.5464C56.9179 25.5429 57.6304 25.4743 58.3323 25.3415V48.5954C58.3323 58.3784 52.5616 64.1662 42.7643 64.1662H21.4256C11.6026 64.1662 5.83194 58.3784 5.83194 48.5954V27.2879C5.83194 17.5049 11.6026 11.6658 21.4256 11.6658H44.6622C44.5243 12.3746 44.4556 13.0951 44.457 13.8171ZM38.3529 43.4478L46.6883 32.6916V32.6404C47.4019 31.6815 47.2199 30.3294 46.278 29.5928C45.8221 29.2409 45.2428 29.0885 44.6725 29.1706C44.1021 29.2526 43.5894 29.5621 43.2516 30.0282L36.2242 39.0685L28.2222 32.7684C27.7653 32.4125 27.1841 32.2554 26.6099 32.3325C26.0356 32.4096 25.5166 32.7144 25.1701 33.1782L16.5526 44.2929C16.2497 44.6705 16.0866 45.1409 16.0909 45.6246C16.0409 46.6023 16.6583 47.4904 17.5931 47.7855C18.5279 48.0806 19.5444 47.7082 20.0663 46.8795L27.2732 37.5575L35.2752 43.8319C35.7304 44.1988 36.3154 44.3652 36.8958 44.2927C37.4763 44.2203 38.0022 43.9153 38.3529 43.4478Z" fill="white" fill-opacity="0.53"/>
<circle opacity="0.4" cx="56.873" cy="13.1246" r="7.29172" fill="white" fill-opacity="0.53"/>
</svg>
