<svg width="31" height="32" viewBox="0 0 31 32" fill="none" xmlns="http://www.w3.org/2000/svg">
<path d="M20.8477 11.6172C23.8751 11.6175 26.3301 14.1099 26.3301 17.1836V23.7656C26.3301 26.8393 23.8751 29.3317 20.8477 29.332H9.97852C6.95084 29.332 4.49609 26.8395 4.49609 23.7656V17.1836C4.49609 14.1097 6.95084 11.6172 9.97852 11.6172H20.8477ZM15.4062 17.8438C14.7798 17.8438 14.2715 18.3621 14.2715 18.998V21.9395C14.2719 22.5883 14.7801 23.1055 15.4062 23.1055C16.0455 23.1055 16.5543 22.5883 16.5547 21.9395V18.998C16.5547 18.3621 16.0457 17.8438 15.4062 17.8438Z" fill="#2B406D"/>
<path opacity="0.4" d="M22.5062 9.86062V11.8216C22.0494 11.6891 21.5665 11.6228 21.0706 11.6228H20.2223V9.86062C20.2223 7.17092 18.069 4.98472 15.4198 4.98472C12.7705 4.98472 10.6172 7.15767 10.6041 9.83412V11.6228H9.76891C9.25995 11.6228 8.77708 11.6891 8.32031 11.8348V9.86062C8.33336 5.8857 11.5046 2.66602 15.3937 2.66602C19.3349 2.66602 22.5062 5.8857 22.5062 9.86062Z" fill="#2B406D"/>
</svg>
