<svg width="33" height="33" viewBox="0 0 33 33" fill="none" xmlns="http://www.w3.org/2000/svg">
<path opacity="0.4" d="M22.4678 2.75033H10.5466C5.88533 2.75033 2.75033 6.02283 2.75033 10.8903V22.1241C2.75033 26.9778 5.88533 30.2503 10.5466 30.2503H22.4678C27.1291 30.2503 30.2503 26.9778 30.2503 22.1241V10.8903C30.2503 6.02283 27.1291 2.75033 22.4678 2.75033Z" fill="#FF7E81"/>
<path d="M20.6463 18.9342L18.2001 16.4895L20.6449 14.0447C21.1151 13.5758 21.1151 12.8127 20.6449 12.3438C20.1746 11.8708 19.4143 11.8722 18.944 12.3425L16.4979 14.7872L14.0518 12.3397C13.5815 11.8695 12.8198 11.8722 12.3495 12.3397C11.8806 12.81 11.8806 13.5731 12.3495 14.042L14.797 16.4895L12.355 18.9301C11.8848 19.4003 11.8848 20.1635 12.355 20.631C12.5901 20.8675 12.8968 20.9843 13.2048 20.9843C13.5141 20.9843 13.8208 20.8675 14.0559 20.6323L16.4979 18.1903L18.9454 20.6365C19.1805 20.8716 19.4871 20.9885 19.7951 20.9885C20.1031 20.9885 20.4111 20.8702 20.6463 20.6365C21.1165 20.1662 21.1165 19.4045 20.6463 18.9342Z" fill="#FF7E81"/>
</svg>
