<svg width="32" height="32" viewBox="0 0 32 32" fill="none" xmlns="http://www.w3.org/2000/svg">
<path opacity="0.4" d="M21.788 2.66602H10.228C5.70797 2.66602 2.66797 5.83935 2.66797 10.5593V21.4527C2.66797 26.1593 5.70797 29.3327 10.228 29.3327H21.788C26.308 29.3327 29.3346 26.1593 29.3346 21.4527V10.5593C29.3346 5.83935 26.308 2.66602 21.788 2.66602Z" fill="white"/>
<path d="M14.4173 20.33C14.1186 20.33 13.8199 20.2166 13.5919 19.9886L10.4279 16.8246C9.97194 16.3686 9.97194 15.63 10.4279 15.1753C10.8839 14.7193 11.6213 14.718 12.0773 15.174L14.4173 17.514L19.9213 12.01C20.3773 11.554 21.1146 11.554 21.5706 12.01C22.0266 12.466 22.0266 13.2046 21.5706 13.6606L15.2426 19.9886C15.0146 20.2166 14.7159 20.33 14.4173 20.33Z" fill="white"/>
</svg>
