<svg width="35" height="32" viewBox="0 0 35 32" fill="none" xmlns="http://www.w3.org/2000/svg">
<path fill-rule="evenodd" clip-rule="evenodd" d="M25.3823 15.3534C23.6125 18.3941 20.6545 20.268 17.6408 20.268C17.5564 20.268 17.4721 20.268 17.3859 20.268C14.4171 20.268 11.459 18.3941 9.68922 15.3534L9.01074 14.1903L11.3388 12.8352L12.0155 13.9983C13.0386 15.7555 14.9879 17.6671 17.5133 17.5738C20.0568 17.6528 22.033 15.7573 23.0561 13.9983L23.7328 12.8352L26.059 14.1903L25.3823 15.3534ZM27.2652 0.500371C23.5012 -0.713004 20.0747 0.297543 17.5008 3.34534C14.925 0.297543 11.4985 -0.713004 7.73454 0.500371C2.98514 2.03145 0.0217088 6.32493 0.000169578 11.7026C-0.0447038 20.9177 8.82406 28.137 17.1382 31.8184L17.5026 31.9799L17.8669 31.8184C26.1793 28.1352 35.0462 20.9159 35.0014 11.7008C34.9798 6.32314 32.0164 2.03145 27.2652 0.500371Z" fill="#2B406D"/>
</svg>
