<svg width="38" height="38" viewBox="0 0 38 38" fill="none" xmlns="http://www.w3.org/2000/svg">
<path opacity="0.4" d="M19.0013 3.16732C27.7334 3.16732 34.8346 10.2702 34.8346 19.0007C34.8346 27.7312 27.7334 34.834 19.0013 34.834C10.2708 34.834 3.16797 27.7312 3.16797 19.0007C3.16797 10.2702 10.2708 3.16732 19.0013 3.16732Z" fill="#A6A6A6"/>
<path d="M16.7178 12.3179C17.0202 12.3179 17.3242 12.4334 17.5553 12.6646L23.0764 18.1588C23.2997 18.382 23.4248 18.6844 23.4248 19.0011C23.4248 19.3162 23.2997 19.6186 23.0764 19.8419L17.5553 25.3392C17.0914 25.8015 16.3409 25.8015 15.877 25.336C15.4147 24.8705 15.4163 24.1184 15.8802 23.6561L20.5558 19.0011L15.8802 14.3461C15.4163 13.8838 15.4147 13.1333 15.877 12.6678C16.1082 12.4334 16.4138 12.3179 16.7178 12.3179Z" fill="#A6A6A6"/>
</svg>
