<svg width="79" height="79" viewBox="0 0 79 79" fill="none" xmlns="http://www.w3.org/2000/svg">
<circle cx="39.5" cy="39.5" r="39.5" fill="white"/>
<path d="M48.8112 44.9919L43.3201 39.5039L48.8081 34.0159C49.8637 32.9633 49.8637 31.2502 48.8081 30.1977C47.7525 29.1359 46.0456 29.139 44.99 30.1946L39.4988 35.6826L34.0077 30.1884C32.9521 29.1328 31.2421 29.139 30.1865 30.1884C29.1339 31.2441 29.1339 32.9571 30.1865 34.0097L35.6807 39.5039L30.1988 44.9827C29.1432 46.0383 29.1432 47.7514 30.1988 48.8008C30.7266 49.3317 31.415 49.5941 32.1064 49.5941C32.8009 49.5941 33.4892 49.3317 34.017 48.8039L39.4988 43.322L44.993 48.8132C45.5209 49.341 46.2092 49.6033 46.9006 49.6033C47.592 49.6033 48.2834 49.3379 48.8112 48.8132C49.8668 47.7575 49.8668 46.0475 48.8112 44.9919Z" fill="#384F80"/>
</svg>
